<?xml version="1.0" encoding="utf-8"?>
<!-- Generator: Adobe Illustrator 25.4.1, SVG Export Plug-In . SVG Version: 6.00 Build 0)  -->
<svg version="1.1" id="Layer_1" xmlns="http://www.w3.org/2000/svg" xmlns:xlink="http://www.w3.org/1999/xlink" x="0px" y="0px"
	 viewBox="0 0 1080 1080" style="enable-background:new 0 0 1080 1080;" xml:space="preserve">
<style type="text/css">
	.st0{fill:#662D91;stroke:#662D91;stroke-miterlimit:10;}
	.st1{fill:#FFFFFF;}
	.st2{fill:#231F20;}
	.st3{fill:#00A551;}
	.st4{fill:#ED1E79;}
	.st5{fill:#EC297B;}
	.st6{fill:#39B54A;}
	.st7{fill:#009245;}
	.st8{fill:none;stroke:#39B54A;stroke-miterlimit:10;}
</style>
<g>
	<circle class="st1" cx="539.9" cy="540.5" r="521"/>
	<g>
		<path class="st2" d="M539.9,41.1c-275.8,0-499.3,223.6-499.3,499.3c0,275.8,223.6,499.3,499.3,499.3s499.3-223.6,499.3-499.3
			C1039.2,264.7,815.7,41.1,539.9,41.1z M627.7,351.3c24.5-13.3,30.9-26.9,30.9-42.8c0-27.2-9.7-58.3-9.7-84
			c0-26.8,20.2-46.7,108.6,11.2c94.9,67.9,156.9,179,156.9,304.7c0,193.1-146.2,351.9-334,372.1c-9.8,1.1-16.7-9.4-12.1-18.1
			c47.3-90.2,208.4-179.9,208.4-299.9c0-56.6-34.8-111.9-103-141.5c-57.5-25-74.4-45.8-74.1-65C599.8,371.5,606.1,363,627.7,351.3z
			 M322.2,235.8c88.5-57.9,108.7-38.1,108.7-11.3c0,25.7-9.7,56.8-9.7,84c0,15.9,6.4,29.5,30.9,42.8c21.6,11.7,28,20.2,28.2,36.7
			c0.3,19.2-16.6,40.1-74.1,65c-68.2,29.6-103,84.9-103,141.5c0,120,161.1,209.7,208.4,299.9c4.6,8.7-2.3,19.2-12.1,18.1
			c-187.8-20.2-334-179-334-372.1C165.4,414.8,227.3,303.7,322.2,235.8z M854.8,853.7c-71.8,71.8-164,115.9-263.6,126.9
			c-3.3,0.4-5.9,2.7-6.6,5.9c-4.4,19.9-22.5,34.8-43.9,34.2c-19.8-0.6-37-15.1-41.3-34.1c-0.7-3.2-3.4-5.6-6.6-5.9
			c-99.5-10.9-191.7-55-263.6-126.9c-74.5-74.5-119.2-171-127.9-274.9c-0.3-3.6,2.6-6.8,6.3-6.8h0c3.2,0,5.9,2.5,6.2,5.7
			c8.5,100.9,51.9,194.7,124.3,267.1c69.5,69.5,158.5,112.2,254.7,123.1c3.6,0.4,6.9-1.9,8.1-5.3c4.3-12.2,13.9-22,26-26.5
			c2.6-1,4.3-3.5,4.3-6.3l-0.5-238.5c0-12.3-6.4-18.6-14.7-22.9c-26.3-13.7-42-34.1-42-67.1c0-34.5,28.3-64.4,65.9-64.4
			c37.1,0,63.7,29.7,65.9,64.4c2.1,32.9-15.8,53.3-42,67.1c-8.2,4.3-14.7,10.6-14.7,22.9l-0.5,237.1c0,3,2,5.7,4.9,6.5
			c13.9,3.8,25,14.2,29.7,27.7c1.2,3.4,4.5,5.7,8.1,5.3c96.2-10.9,185.2-53.7,254.7-123.1c72.4-72.4,115.8-166.2,124.3-267.1
			c0.3-3.2,2.9-5.7,6.2-5.7l0,0c3.6,0,6.6,3.1,6.3,6.8C974,682.7,929.3,779.2,854.8,853.7z"/>
		<path class="st3" d="M542,945.9c17.2,0,31.1,13.9,31.1,31.1s-13.9,31.1-31.1,31.1s-31.1-13.9-31.1-31.1S524.8,945.9,542,945.9"/>
		<g>
			<g>
				<path class="st4" d="M77.5,535.8l2.5-46.3l16.2,0.9L95,513.9l8.7,0.5l1.1-20.6l15.7,0.9l-1.1,20.6l18,1l-1.3,22.8L77.5,535.8z"
					/>
				<path class="st4" d="M82.3,473.1l9.2-46.5l15.8,3.1l-4.7,24.1l6.4,1.3l4.1-20.7l13,2.6l-4.1,20.7l6.7,1.3l4.7-24.1l15.8,3.1
					l-9.1,46.5L82.3,473.1z"/>
				<path class="st4" d="M151.6,427.8l-55.2-20.2l9.8-26.7c8.7-23.6,22.2-24.2,36-19.1l3.2,1.2c14.2,5.2,24.4,15.1,15.5,39.3
					L151.6,427.8z M119.3,391.7l25.2,9.2l0.7-1.9c2.1-5.7,1.3-11.1-7.9-14.5l-2.8-1c-7.9-2.9-12.2,0.1-14.7,6.7L119.3,391.7z"/>
				<path class="st4" d="M125.3,335.2l23.1-41.4l14,7.8l-12,21.5l5.7,3.2l10.3-18.5l11.5,6.4l-10.3,18.5l6,3.3l12-21.5l14,7.8
					l-23.1,41.4L125.3,335.2z"/>
				<path class="st4" d="M159.2,277.4l21.5-27.6c9.6-12.3,19.3-10.9,26.2-5.5c6.4,5,9.5,12.4,4.4,21.8l30.9,0.5l-15,19.2l-21.4-1
					l13.8,10.8l-14,18L159.2,277.4z M185.3,268.8l9.4,7.3l3.3-4.2c2.5-3.2,1.7-6.2-1-8.3c-2.8-2.2-6-2.2-8.5,1L185.3,268.8z"/>
				<path class="st4" d="M266.6,229.4l-10.5,9.6l5.5,9.5l-16.8,15.3l-28.7-53.3l25.5-23.3l50.3,33.6L275.4,236L266.6,229.4z
					 M235.9,208.7l10.8,17.2l7.2-6.5l-16.7-11.8L235.9,208.7z"/>
				<path class="st4" d="M337.1,190.5c-3.3,3.2-7.8,7.1-12.1,9.9l-2.4,1.6c-21.4,14.3-33.8,6.2-42.5-6.9l-1.9-2.8
					c-8.5-12.7-11.4-26.5,9.5-40.5l2.3-1.5c5.3-3.5,11.4-6.1,15.3-6.8l8.1,13.9c-4.5,1.4-8.9,3.8-12.1,5.9
					c-6.4,4.2-8.6,9.4-3.9,16.4l1.6,2.4c5.4,8.1,11.2,7.5,16.8,3.8c3.7-2.5,7.5-5.5,10.7-9.3L337.1,190.5z"/>
				<path class="st4" d="M366.5,176.2l-20.3,10.4l-26.8-52.3l20.3-10.4L366.5,176.2z"/>
				<path class="st4" d="M364.9,141.2c-5.1-14.4-4-28.7,18.1-36.6l2.6-0.9c23.3-8.3,33.2,2.1,38.3,16.5l1.1,3.2
					c5.2,14.8,4.3,29.6-17.8,37.4l-2.7,1c-23.2,8.2-33.2-2.6-38.5-17.4L364.9,141.2z M386.6,133.7l1,2.9c2.3,6.4,5.9,11.8,11.3,9.9
					l1.8-0.7c5.3-1.9,4.7-8.4,2.4-14.8l-1-2.9c-2.1-6-5.7-11.1-11-9.2l-1.8,0.7C384,121.5,384.5,127.7,386.6,133.7z"/>
				<path class="st4" d="M460.4,114.9l4.9,29.2l-21.6,3.6L434,89.7l20-3.3l22.2,25.5l-4.7-28.4l21.6-3.6l9.7,57.9l-19.1,3.2
					L460.4,114.9z"/>
				<path class="st4" d="M544.4,77.7l54,3.7l-1.1,16.7L581.6,97l-2.8,41.9l-22.8-1.5l2.8-41.9l-15.6-1.1L544.4,77.7z"/>
				<path class="st4" d="M625,146.1l-22.4-4.2l10.7-57.8l22.4,4.2L625,146.1z"/>
				<path class="st4" d="M664.3,140.6l-4.6,14.7l-21.7-6.9l17.6-56l32,10.1c15.3,4.8,16.9,16.2,13.7,26.5
					c-3.6,11.4-12.3,19.3-26.2,14.9L664.3,140.6z M672.7,114l-3.9,12.4l4.7,1.5c3.8,1.2,6.5-0.7,7.6-4.4c1.1-3.6,0.1-6.8-3.7-8
					L672.7,114z"/>
				<path class="st4" d="M708.2,138.3c6.9-13.6,18.1-22.7,38.9-12.1l2.4,1.2c22,11.2,21.3,25.5,14.4,39.1l-1.5,3.1
					c-7.1,14-18.5,23.4-39.3,12.9l-2.5-1.3c-21.9-11.1-21-25.9-13.9-39.9L708.2,138.3z M728.6,148.9l-1.4,2.7
					c-3.1,6-4.5,12.4,0.6,15l1.7,0.9c5,2.5,9.3-2.4,12.4-8.4l1.4-2.7c2.9-5.7,4.1-11.8-0.9-14.3l-1.7-0.9
					C735.6,138.6,731.5,143.2,728.6,148.9z"/>
				<path class="st4" d="M783.5,220.5l-2.3-1.7c-21.8-16-18.2-30.2-9-42.8l2-2.8c9-12.3,20.9-19.9,42.9-3.8l2.2,1.6
					c5.6,4.1,10.7,9.3,13,13l-10.3,12.4c-2.9-3.6-6.6-7-9.8-9.3c-8.9-6.5-14.8-7.1-19.8-0.3l-1.7,2.4c-5.4,7.4-4.3,11.8,2.5,17.2
					l9.8-13.4l15.7,11.5l-18.4,25.2C794.9,227.6,788.5,224.2,783.5,220.5z"/>
				<path class="st4" d="M848.9,196l24.6,24.8c11,11,8.4,20.5,2.2,26.7c-5.8,5.7-13.5,7.9-22.2,1.6l-4.4,30.6L832,262.4l3.7-21.1
					l-12.4,12.4l-16.1-16.2L848.9,196z M854.2,223l-8.5,8.4l3.7,3.7c2.8,2.8,5.9,2.5,8.4,0.1c2.5-2.5,2.9-5.7,0.1-8.5L854.2,223z"/>
				<path class="st4" d="M883.1,308.9l-8.2-11.6l-10.2,4.3l-13.1-18.6l56.5-21.7l19.9,28.3l-39.7,45.7l-12.9-18.4L883.1,308.9z
					 M907.6,281l-18.4,8.5l5.6,7.9l13.8-15.1L907.6,281z"/>
				<path class="st4" d="M944,315.4l20.7,41.5l-14.5,7.3l-10.6-21.1l-7.8,3.9l9.2,18.5l-14.1,7.1l-9.2-18.5l-16.1,8.1l-10.2-20.4
					L944,315.4z"/>
				<path class="st4" d="M922.8,413.1l-7.8-21.4l55.2-20.1L978,393L922.8,413.1z"/>
				<path class="st4" d="M938.4,471.4c-1.9-4.2-3.9-9.8-5.1-14.8l-0.7-2.8c-6-25,5.9-33.8,21.2-37.4l3.3-0.8
					c14.9-3.5,28.8-1.5,34.6,23l0.6,2.7c1.5,6.2,1.7,12.8,1.1,16.7l-15.8,2.8c0.3-4.7-0.5-9.6-1.4-13.4c-1.8-7.4-5.8-11.3-14-9.4
					l-2.9,0.7c-9.5,2.3-10.9,7.9-9.4,14.4c1,4.4,2.5,9,5,13.3L938.4,471.4z"/>
				<path class="st4" d="M953.1,513.1l-1.2-14.1l-10.9-1.5l-1.9-22.6l59.7,9.8l2.9,34.4l-57.3,19.4l-1.9-22.4L953.1,513.1z
					 M988.2,501.5l-20.2-2l0.8,9.7l19.5-6L988.2,501.5z"/>
			</g>
			<polygon class="st5" points="916.4,262.4 937.8,286.3 945,272.5 			"/>
			<polygon class="st5" points="377.4,101.7 406.3,88 395.2,77.2 			"/>
		</g>
	</g>
	<g>
		<path class="st3" d="M584.6,896c178.4-23,311.9-174.3,311.9-355.1c0-115.1-56-224-149.8-291.2c-46.1-30.2-67.3-34.7-75.9-34.7
			c-4.8,0-7.4,0-7.4,10c0,11.3,2.2,24.3,4.5,38.1c2.6,15.1,5.2,30.7,5.2,45.9c0,24.4-12.5,42.5-39.4,57.1
			c-19.5,10.6-19.6,14.8-19.7,22.6c-0.2,14.3,22,31.5,64.4,49.9c70.6,30.6,112.8,89.1,112.8,156.4c0,81.9-67.3,149.3-126.7,208.8
			C632.4,835.9,602,866.4,584.6,896z"/>
	</g>
	<g>
		<path class="st3" d="M493.1,896c-178.4-23-311.9-174.3-311.9-355.1c0-115.1,56-224,149.8-291.2c46.1-30.2,67.3-34.7,75.9-34.7
			c4.8,0,7.4,0,7.4,10c0,11.3-2.2,24.3-4.5,38.1c-2.6,15.1-5.2,30.7-5.2,45.9c0,24.4,12.5,42.5,39.4,57.1
			c19.5,10.6,19.6,14.8,19.7,22.6c0.2,14.3-22,31.5-64.4,49.9c-70.6,30.6-112.8,89.1-112.8,156.4c0,81.9,67.3,149.3,126.7,208.8
			C445.2,835.9,475.7,866.4,493.1,896z"/>
	</g>
</g>
</svg>
